<?xml version="1.0" encoding="utf-8"?>
<!-- Generator: Adobe Illustrator 19.2.1, SVG Export Plug-In . SVG Version: 6.00 Build 0)  -->
<svg version="1.1" id="Layer_1" xmlns="http://www.w3.org/2000/svg" xmlns:xlink="http://www.w3.org/1999/xlink" x="0px" y="0px"
	 viewBox="0 0 238.5 63.5" style="enable-background:new 0 0 238.5 63.5;" xml:space="preserve">
<style type="text/css">
	.st0{fill:#383838;}
	.st1{fill:#F04C36;}
	.st2{fill:#FFFFFF;}
</style>
<g>
	<g>
		<path class="st0" d="M76.9,20.7h1.3l-2,8.9c0.6-0.7,1.2-1.3,1.8-1.6c0.6-0.4,1.1-0.6,1.8-0.8c0.6-0.2,1.3-0.3,1.9-0.3
			c0.9,0,1.6,0.1,2.2,0.4c0.6,0.3,1.1,0.7,1.4,1.2s0.5,1.1,0.5,1.7c0,0.2,0,0.4,0,0.6c0,0.1-0.1,0.4-0.2,0.8l-1.1,5
			c-0.1,0.6-0.2,0.9-0.2,1.1c0,0.2,0.1,0.3,0.2,0.4c0.1,0.1,0.3,0.2,0.4,0.2c0.2,0,0.4-0.1,0.7-0.2s0.6-0.4,1.1-0.8l1.6,1.8
			c-1,0.8-1.8,1.4-2.6,1.8c-0.7,0.3-1.5,0.5-2.2,0.5c-1,0-1.9-0.3-2.5-0.9s-1-1.3-1-2.1c0-0.5,0.1-1.2,0.3-2l0.9-4
			c0.2-0.7,0.2-1.1,0.2-1.4c0-0.2-0.1-0.5-0.3-0.6c-0.2-0.2-0.4-0.2-0.7-0.2c-0.7,0-1.4,0.3-2.1,0.9c-0.9,0.8-1.8,1.9-2.6,3.5
			C75,36,74.5,37.5,74.1,39l-0.5,2h-4.4l3.7-16.5h-2.2l0.6-2.7C73.1,21.8,74.9,21.4,76.9,20.7z"/>
		<path class="st0" d="M97.5,26.9c1.9,0,3.5,0.5,4.8,1.6s1.9,2.5,1.9,4.3c0,1.5-0.4,2.9-1.2,4.3s-1.8,2.4-3.1,3.2s-2.8,1.1-4.4,1.1
			c-2.1,0-3.7-0.6-5-1.7c-1.2-1.1-1.8-2.6-1.8-4.4c0-1.5,0.4-2.9,1.2-4.2c0.8-1.3,1.8-2.3,3.2-3.1C94.4,27.2,95.9,26.9,97.5,26.9z
			 M97.4,29.7c-0.6,0-1.2,0.2-1.8,0.7c-0.6,0.4-1.1,1.2-1.5,2.2c-0.4,1.1-0.6,2.1-0.6,3.2c0,0.9,0.2,1.6,0.6,2
			c0.4,0.5,0.9,0.7,1.5,0.7c0.6,0,1.2-0.2,1.8-0.6s1.1-1.2,1.5-2.2s0.6-2.1,0.6-3.3c0-0.9-0.2-1.6-0.6-2
			C98.5,29.9,98,29.7,97.4,29.7z"/>
		<path class="st0" d="M122.6,27.2l-2.5,9.6c-0.1,0.4-0.2,0.7-0.2,0.8c0,0.2,0.1,0.3,0.2,0.5c0.1,0.1,0.2,0.2,0.4,0.2
			c0.2,0,0.4-0.1,0.6-0.2c0.4-0.2,0.8-0.5,1-0.8l1.5,1.8c-1.6,1.5-3.2,2.3-4.8,2.3c-1,0-1.7-0.3-2.3-0.8c-0.5-0.4-0.8-1.1-1.1-2
			c-0.6,0.8-1.3,1.4-2.1,2c-0.9,0.5-1.8,0.8-2.9,0.8c-1.1,0-2-0.3-2.6-1c-0.6-0.6-1-1.4-1-2.4c0-0.6,0.1-1.1,0.2-1.5
			c0-0.1,0.1-0.3,0.1-0.4l1.2-5.3h-3l0.7-2.7c1,0,2-0.2,3.1-0.4c1.1-0.2,2.1-0.5,3-0.9h1.5l-2,9.5c-0.1,0.5-0.2,0.8-0.2,1
			c0,0.2,0.1,0.4,0.3,0.6s0.4,0.2,0.7,0.2c0.4,0,0.8-0.1,1.2-0.4c0.6-0.4,1.2-1,1.7-1.9c0.5-0.8,1-1.8,1.4-3c0.4-1.2,0.7-2,0.7-2.4
			c0-0.1,0-0.3,0.1-0.5l0.7-2.7H122.6z"/>
		<path class="st0" d="M133.6,26.9c1.2,0,2.3,0.2,3.3,0.5c1,0.3,1.7,0.7,2,1.2s0.6,0.9,0.6,1.4c0,0.5-0.2,0.9-0.5,1.3
			c-0.3,0.3-0.8,0.5-1.3,0.5c-0.2,0-0.5,0-0.7-0.1c-0.2-0.1-0.4-0.2-0.7-0.3c-0.1-0.1-0.4-0.3-0.8-0.7c-0.4-0.4-0.6-0.6-0.8-0.7
			c-0.2-0.1-0.5-0.2-0.8-0.3c-0.3-0.1-0.6-0.1-1-0.1c-0.6,0-1.1,0.1-1.4,0.3c-0.3,0.2-0.4,0.4-0.4,0.7c0,0.2,0.1,0.4,0.2,0.6
			c0.2,0.2,0.5,0.4,1,0.5c1.8,0.6,3.1,1.1,3.9,1.5c0.8,0.4,1.4,0.8,1.8,1.4c0.4,0.5,0.6,1.2,0.6,1.9c0,0.8-0.3,1.6-0.8,2.4
			c-0.5,0.8-1.3,1.3-2.3,1.8c-1,0.4-2.3,0.7-3.8,0.7c-2.3,0-4.1-0.4-5.4-1.3c-1-0.6-1.5-1.4-1.5-2.3c0-0.5,0.2-0.9,0.5-1.3
			s0.8-0.5,1.3-0.5c0.2,0,0.4,0,0.6,0.1s0.4,0.2,0.7,0.4c0.2,0.1,0.4,0.4,0.8,0.8c0.3,0.3,0.5,0.5,0.7,0.6c0.4,0.3,0.8,0.5,1.2,0.7
			c0.4,0.1,0.8,0.2,1.4,0.2c0.8,0,1.3-0.1,1.7-0.3c0.5-0.3,0.7-0.6,0.7-0.9c0-0.3-0.2-0.6-0.5-0.9c-0.2-0.2-1.1-0.5-2.5-1
			c-1.7-0.6-2.8-1.2-3.5-1.9c-0.6-0.7-1-1.5-1-2.4c0-0.8,0.2-1.5,0.7-2.2c0.5-0.7,1.2-1.2,2.3-1.7C130.8,27.1,132.1,26.9,133.6,26.9
			z"/>
		<path class="st0" d="M152.8,36.1l1.8,2c-1.4,1.2-2.6,2-3.8,2.6c-1.2,0.5-2.5,0.8-3.7,0.8c-1.8,0-3.2-0.4-4.2-1.1
			c-1.5-1.2-2.3-2.8-2.3-4.8c0-1.5,0.4-2.9,1.3-4.2c0.8-1.3,2.1-2.4,3.6-3.2c1.6-0.8,3.3-1.2,5.1-1.2c1.5,0,2.7,0.3,3.5,1
			c0.8,0.7,1.3,1.5,1.3,2.4c0,0.7-0.1,1.3-0.4,1.8c-0.4,0.7-0.9,1.2-1.6,1.7c-0.7,0.4-1.8,0.8-3.2,1.1c-1.4,0.3-3,0.5-4.6,0.5v0.3
			c0,0.8,0.2,1.4,0.7,1.9c0.5,0.5,1.1,0.7,1.9,0.7c0.7,0,1.4-0.2,2.1-0.5C151.2,37.3,152.1,36.7,152.8,36.1z M145.9,32.9
			c1.5-0.1,2.6-0.2,3.4-0.5c0.8-0.2,1.4-0.5,1.7-0.9c0.3-0.3,0.4-0.6,0.4-0.9c0-0.3-0.1-0.5-0.4-0.8c-0.2-0.2-0.5-0.3-0.9-0.3
			c-0.5,0-1,0.1-1.5,0.4c-0.5,0.3-1,0.6-1.5,1.1S146.2,32.1,145.9,32.9z"/>
		<path class="st0" d="M164.3,26.9l-3.4,15c-0.2,0.8-0.4,1.5-0.5,1.9c-0.3,0.7-0.7,1.3-1.2,1.9s-1.3,1-2.1,1.3
			c-0.9,0.3-1.8,0.5-2.9,0.5c-1.4,0-2.4-0.3-3.1-0.9c-0.5-0.5-0.8-1.1-0.8-1.7c0-0.4,0.1-0.7,0.3-1.1c0.1-0.3,0.4-0.5,0.7-0.7
			c0.3-0.2,0.6-0.3,1-0.3c0.2,0,0.4,0,0.6,0.1s0.5,0.2,0.7,0.4c0.1,0.1,0.3,0.3,0.6,0.7c0.3,0.3,0.4,0.5,0.5,0.5
			c0.1,0.1,0.3,0.1,0.4,0.1c0.3,0,0.5-0.1,0.7-0.4c0.2-0.3,0.4-0.8,0.6-1.5l2.7-11.9h-1.8l0.6-2.7c0.8,0,1.5-0.1,2.4-0.3
			c0.8-0.2,1.8-0.5,2.8-0.9H164.3z M163.5,20.7c0.7,0,1.3,0.2,1.7,0.6c0.4,0.4,0.6,1,0.6,1.7c0,0.5-0.1,0.9-0.4,1.4
			c-0.2,0.4-0.6,0.8-1.1,1c-0.5,0.3-0.9,0.4-1.4,0.4c-0.7,0-1.2-0.2-1.7-0.7c-0.5-0.4-0.7-1-0.7-1.7c0-0.7,0.3-1.3,0.8-1.9
			C162,21,162.6,20.7,163.5,20.7z"/>
		<path class="st0" d="M174.4,26.9c1.9,0,3.5,0.5,4.8,1.6c1.3,1.1,1.9,2.5,1.9,4.3c0,1.5-0.4,2.9-1.2,4.3c-0.8,1.4-1.8,2.4-3.1,3.2
			c-1.3,0.8-2.8,1.1-4.4,1.1c-2.1,0-3.7-0.6-5-1.7c-1.2-1.1-1.8-2.6-1.8-4.4c0-1.5,0.4-2.9,1.2-4.2c0.8-1.3,1.8-2.3,3.2-3.1
			C171.2,27.2,172.7,26.9,174.4,26.9z M174.2,29.7c-0.6,0-1.2,0.2-1.8,0.7c-0.6,0.4-1.1,1.2-1.5,2.2c-0.4,1.1-0.6,2.1-0.6,3.2
			c0,0.9,0.2,1.6,0.6,2c0.4,0.5,0.9,0.7,1.5,0.7c0.6,0,1.2-0.2,1.8-0.6c0.6-0.4,1.1-1.2,1.5-2.2c0.4-1,0.6-2.1,0.6-3.3
			c0-0.9-0.2-1.6-0.6-2C175.4,29.9,174.9,29.7,174.2,29.7z"/>
		<path class="st0" d="M185.9,30.7h-3l0.7-2.7c2-0.1,4-0.5,6-1.2h1.6l-2.1,9.2c-0.2,0.7-0.2,1.1-0.2,1.3c0,0.2,0.1,0.4,0.3,0.5
			c0.2,0.1,0.4,0.2,0.7,0.2c0.4,0,0.8-0.2,1.3-0.5c0.7-0.5,1.3-1.4,1.9-2.5s1-2.5,1.4-4.2l0.8-3.6h4.4l-3,12.8
			c-0.6,2.5-1.7,4.3-3.2,5.5c-1.7,1.3-4,1.9-6.6,1.9c-1.9,0-3.3-0.3-4.2-0.9c-0.9-0.6-1.4-1.4-1.4-2.2c0-0.6,0.2-1,0.6-1.4
			s0.9-0.6,1.5-0.6c0.4,0,0.7,0.1,1,0.2c0.2,0.1,0.6,0.4,1,0.9c0.4,0.4,0.7,0.8,1.1,0.9c0.3,0.2,0.7,0.3,1.2,0.3
			c0.5,0,1.1-0.1,1.6-0.4s1-0.6,1.5-1c0.4-0.4,0.8-1,1.1-1.6c0.3-0.6,0.6-1.5,0.7-2.5c-0.5,0.6-0.9,1-1.4,1.3
			c-0.4,0.3-0.9,0.5-1.4,0.7s-1.1,0.2-1.7,0.2c-0.8,0-1.4-0.1-1.9-0.4s-0.9-0.7-1.2-1.2c-0.3-0.5-0.5-1.1-0.5-1.6
			c0-0.4,0.1-1.1,0.3-2L185.9,30.7z"/>
		<path class="st0" d="M202.9,36.2c0.4,0,0.8,0.1,1.2,0.3c0.4,0.2,0.7,0.5,0.9,0.9c0.2,0.4,0.3,0.8,0.3,1.2c0,0.5-0.1,0.9-0.4,1.4
			c-0.3,0.5-0.6,0.8-1,1.1c-0.4,0.2-0.9,0.4-1.5,0.4c-0.7,0-1.3-0.2-1.7-0.6s-0.7-1-0.7-1.7c0-0.5,0.1-1,0.4-1.4s0.6-0.8,1.1-1.1
			C202,36.3,202.5,36.2,202.9,36.2z"/>
		<path class="st0" d="M216.3,26.9h1.4l-2.4,9.7c-0.2,0.7-0.3,1.1-0.3,1.2c0,0.2,0,0.3,0.2,0.4c0.1,0.1,0.2,0.1,0.4,0.1
			c0.5,0,1-0.3,1.7-1l1.5,1.8c-1.5,1.5-3,2.3-4.7,2.3c-0.7,0-1.3-0.1-1.8-0.4c-0.5-0.3-0.9-0.6-1.2-1.1c-0.3-0.5-0.5-1-0.5-1.4
			c0-0.2,0-0.5,0.1-0.9c0.1-0.6,0.2-1.1,0.3-1.5l1.3-5.4h-2.8l0.7-2.7C212.4,27.8,214.5,27.4,216.3,26.9z M215.9,20.7
			c0.7,0,1.3,0.2,1.7,0.7s0.6,1,0.6,1.6c0,0.5-0.1,0.9-0.4,1.4c-0.2,0.4-0.6,0.8-1,1c-0.5,0.3-0.9,0.4-1.3,0.4
			c-0.4,0-0.8-0.1-1.2-0.3c-0.4-0.2-0.7-0.5-0.9-0.9c-0.2-0.4-0.3-0.8-0.3-1.2c0-0.5,0.1-0.9,0.4-1.4c0.3-0.5,0.6-0.8,1-1
			C214.9,20.8,215.3,20.7,215.9,20.7z"/>
		<path class="st0" d="M220.7,41.1l2.3-10.3h-2.2l0.6-2.7c1.7-0.1,3.5-0.5,5.3-1.2h1.3l-0.6,2.7c0.6-0.7,1.2-1.2,1.7-1.6
			c0.5-0.4,1.1-0.6,1.6-0.8c0.6-0.2,1.1-0.3,1.7-0.3c1.1,0,2,0.3,2.7,1c0.7,0.7,1,1.5,1,2.5c0,0.3,0,0.5,0,0.7c0,0.1-0.1,0.4-0.2,1
			l-1,4.4c-0.1,0.7-0.2,1.1-0.2,1.2c0,0.1,0.1,0.3,0.2,0.4s0.2,0.1,0.4,0.1c0.5,0,1.1-0.3,1.7-1l1.5,1.8c-0.9,0.9-1.7,1.5-2.4,1.8
			c-0.7,0.3-1.5,0.5-2.3,0.5c-1.1,0-1.9-0.3-2.6-0.9c-0.6-0.6-0.9-1.3-0.9-2c0-0.4,0.1-1.1,0.3-2l0.9-4.3c0.1-0.5,0.2-0.8,0.2-1
			c0-0.2-0.1-0.5-0.3-0.6s-0.4-0.2-0.7-0.2c-0.4,0-0.7,0.1-1,0.2c-0.5,0.3-1.1,0.8-1.6,1.6c-0.6,0.8-1.1,1.7-1.4,2.6
			c-0.4,1-0.8,2.4-1.2,4.3l-0.5,2.1H220.7z"/>
	</g>
	<circle class="st1" cx="31.7" cy="31.7" r="31.7"/>
	<g>
		<g>
			<path class="st2" d="M31.5,45.7c-0.3,0-0.5,0-0.8,0c-5.4-0.4-8.6-5.1-8.8-5.3c-0.8-1.2-0.5-2.9,0.7-3.7c1.2-0.8,2.9-0.5,3.7,0.7
				c0.1,0.1,2,2.8,4.8,3c1.9,0.2,4-1,6.2-3.3c1-1.1,2.7-1.1,3.8-0.1c1.1,1,1.1,2.7,0.1,3.8C38.1,44,34.9,45.7,31.5,45.7z"/>
		</g>
		<g>
			<path class="st2" d="M11.2,38.9c-0.8,0-1.6-0.4-2.1-1.1c-0.9-1.2-0.7-2.9,0.5-3.8l20.5-15.7c1.2-0.9,2.9-0.7,3.8,0.5
				c0.9,1.2,0.7,2.9-0.5,3.8L12.8,38.3C12.3,38.7,11.8,38.9,11.2,38.9z"/>
		</g>
		<g>
			<path class="st2" d="M52.3,38.9c-0.6,0-1.1-0.2-1.6-0.6L30.1,22.6c-1.2-0.9-1.4-2.6-0.5-3.8c0.9-1.2,2.6-1.4,3.8-0.5l20.5,15.7
				c1.2,0.9,1.4,2.6,0.5,3.8C53.9,38.5,53.1,38.9,52.3,38.9z"/>
		</g>
		<g>
			<path class="st2" d="M17.1,34.4c-1.5,0-2.7-1.2-2.7-2.7v-9c0-1.5,1.2-2.7,2.7-2.7s2.7,1.2,2.7,2.7v9
				C19.8,33.2,18.6,34.4,17.1,34.4z"/>
		</g>
	</g>
</g>
</svg>
